HIERARCHY
ROOT hip
{
  OFFSET 0 0 0
  CHANNELS 6 Xposition Yposition Zposition Zrotation Yrotation Xrotation
  JOINT abdomen
  {
    OFFSET 0 20.6881 -0.73152
    CHANNELS 3 Zrotation Xrotation Yrotation
    JOINT chest
    {
      OFFSET 0 11.7043 -0.48768
      CHANNELS 3 Zrotation Xrotation Yrotation
      JOINT neck
      {
        OFFSET 0 22.1894 -2.19456
        CHANNELS 3 Zrotation Xrotation Yrotation
        JOINT head
        {
          OFFSET -0.24384 7.07133 1.2192
          CHANNELS 3 Zrotation Xrotation Yrotation
          JOINT leftEye
          {
            OFFSET 4.14528 8.04674 8.04672
            CHANNELS 3 Zrotation Xrotation Yrotation
            End Site
            {
              OFFSET 1 0 0
            }
          }
          JOINT rightEye
          {
            OFFSET -3.6576 8.04674 8.04672
            CHANNELS 3 Zrotation Xrotation Yrotation
            End Site
            {
              OFFSET 1 0 0
            }
          }
        }
      }
      JOINT rCollar
      {
        OFFSET -2.68224 19.2634 -4.8768
        CHANNELS 3 Zrotation Xrotation Yrotation
        JOINT rShldr
        {
          OFFSET -8.77824 -1.95073 1.46304
          CHANNELS 3 Zrotation Xrotation Yrotation
          JOINT rForeArm
          {
            OFFSET -28.1742 -1.7115 0.48768
            CHANNELS 3 Zrotation Xrotation Yrotation
            JOINT rHand
            {
              OFFSET -22.5879 0.773209 7.07136
              CHANNELS 3 Zrotation Xrotation Yrotation
              JOINT rThumb1
              {
                OFFSET -1.2192 -0.487915 3.41376
                CHANNELS 3 Zrotation Xrotation Yrotation
                JOINT rThumb2
                {
                  OFFSET -3.37035 -0.52449 3.41376
                  CHANNELS 3 Zrotation Xrotation Yrotation
                  End Site
                  {
                    OFFSET -1.78271 -1.18214 1.43049
                  }
                }
              }
              JOINT rIndex1
              {
                OFFSET -7.75947 0.938293 5.60832
                CHANNELS 3 Zrotation Xrotation Yrotation
                JOINT rIndex2
                {
                  OFFSET -2.54057 -0.884171 1.56538
                  CHANNELS 3 Zrotation Xrotation Yrotation
                  End Site
                  {
                    OFFSET -1.62519 -0.234802 1.16502
                  }
                }
              }
              JOINT rMid1
              {
                OFFSET -8.24714 1.18213 3.41376
                CHANNELS 3 Zrotation Xrotation Yrotation
                JOINT rMid2
                {
                  OFFSET -3.10165 -0.590103 1.0647
                  CHANNELS 3 Zrotation Xrotation Yrotation
                  End Site
                  {
                    OFFSET -2.48547 -0.328903 0.83742
                  }
                }
              }
              JOINT rRing1
              {
                OFFSET -8.82822 0.546677 1.51678
                CHANNELS 3 Zrotation Xrotation Yrotation
                JOINT rRing2
                {
                  OFFSET -2.60934 -0.819778 -0.0198488
                  CHANNELS 3 Zrotation Xrotation Yrotation
                  End Site
                  {
                    OFFSET -2.33842 -0.294052 0.168128
                  }
                }
              }
              JOINT rPinky1
              {
                OFFSET -8.27202 -0.0477905 -0.4584
                CHANNELS 3 Zrotation Xrotation Yrotation
                JOINT rPinky2
                {
                  OFFSET -1.82734 -0.647385 -0.700984
                  CHANNELS 3 Zrotation Xrotation Yrotation
                  End Site
                  {
                    OFFSET -1.69225 -0.51767 -0.607171
                  }
                }
              }
            }
          }
        }
      }
      JOINT lCollar
      {
        OFFSET 2.68224 19.2634 -4.8768
        CHANNELS 3 Zrotation Xrotation Yrotation
        JOINT lShldr
        {
          OFFSET 8.77824 -1.95073 1.46304
          CHANNELS 3 Zrotation Xrotation Yrotation
          JOINT lForeArm
          {
            OFFSET 28.1742 -1.7115 0.48768
            CHANNELS 3 Zrotation Xrotation Yrotation
            JOINT lHand
            {
              OFFSET 22.5879 0.773209 7.07136
              CHANNELS 3 Zrotation Xrotation Yrotation
              JOINT lThumb1
              {
                OFFSET 1.2192 -0.487915 3.41376
                CHANNELS 3 Zrotation Xrotation Yrotation
                JOINT lThumb2
                {
                  OFFSET 3.37035 -0.52449 3.41376
                  CHANNELS 3 Zrotation Xrotation Yrotation
                  End Site
                  {
                    OFFSET 1.78271 -1.18214 1.43049
                  }
                }
              }
              JOINT lIndex1
              {
                OFFSET 7.75947 0.938293 5.60832
                CHANNELS 3 Zrotation Xrotation Yrotation
                JOINT lIndex2
                {
                  OFFSET 2.54057 -0.884171 1.56538
                  CHANNELS 3 Zrotation Xrotation Yrotation
                  End Site
                  {
                    OFFSET 1.62519 -0.234802 1.16502
                  }
                }
              }
              JOINT lMid1
              {
                OFFSET 8.24714 1.18213 3.41376
                CHANNELS 3 Zrotation Xrotation Yrotation
                JOINT lMid2
                {
                  OFFSET 3.10165 -0.590103 1.0647
                  CHANNELS 3 Zrotation Xrotation Yrotation
                  End Site
                  {
                    OFFSET 2.48547 -0.328903 0.83742
                  }
                }
              }
              JOINT lRing1
              {
                OFFSET 8.82822 0.546677 1.51678
                CHANNELS 3 Zrotation Xrotation Yrotation
                JOINT lRing2
                {
                  OFFSET 2.60934 -0.819778 -0.0198488
                  CHANNELS 3 Zrotation Xrotation Yrotation
                  End Site
                  {
                    OFFSET 2.33842 -0.294052 0.168128
                  }
                }
              }
              JOINT lPinky1
              {
                OFFSET 8.27202 -0.0477905 -0.4584
                CHANNELS 3 Zrotation Xrotation Yrotation
                JOINT lPinky2
                {
                  OFFSET 1.82734 -0.647385 -0.700984
                  CHANNELS 3 Zrotation Xrotation Yrotation
                  End Site
                  {
                    OFFSET 1.69225 -0.51767 -0.607171
                  }
                }
              }
            }
          }
        }
      }
    }
  }
  JOINT rButtock
  {
    OFFSET -8.77824 4.35084 1.2192
    CHANNELS 3 Zrotation Xrotation Yrotation
    JOINT rThigh
    {
      OFFSET 0 -1.70687 -2.19456
      CHANNELS 3 Zrotation Xrotation Yrotation
      JOINT rShin
      {
        OFFSET 0 -36.8199 0.73152
        CHANNELS 3 Zrotation Xrotation Yrotation
        JOINT rFoot
        {
          OFFSET 0.73152 -45.1104 -5.12064
          CHANNELS 3 Zrotation Xrotation Yrotation
          End Site
          {
            OFFSET -1.1221 -3.69964 12.103
          }
        }
      }
    }
  }
  JOINT lButtock
  {
    OFFSET 8.77824 4.35084 1.2192
    CHANNELS 3 Zrotation Xrotation Yrotation
    JOINT lThigh
    {
      OFFSET 0 -1.70687 -2.19456
      CHANNELS 3 Zrotation Xrotation Yrotation
      JOINT lShin
      {
        OFFSET 0 -36.8199 0.73152
        CHANNELS 3 Zrotation Xrotation Yrotation
        JOINT lFoot
        {
          OFFSET -0.73152 -45.1104 -5.12064
          CHANNELS 3 Zrotation Xrotation Yrotation
          End Site
          {
            OFFSET 1.1221 -3.69964 12.103
          }
        }
      }
    }
  }
}
MOTION
Frames:	6
Frame Time:	0.00833333
-30.1818 80.8863 20.5767 -8.8845 37.194 1.9958 -21.5494 0.798479 -24.4304 3.80025 0.161984 -6.83606 -4.01017 9.05759 22.6655 -15.777 -9.44713 43.5221 -0.0 0.0 0.0 -0.0 0.0 0.0 -1.42378e-13 -1.32391e-13 2.77261e-13 49.9104 -17.366 46.866 -27.4271 -42.7554 89.0143 -0.00292532 -0.666545 -0.0938564 -3.55212e-10 -2.13565e-10 -1.67088e-09 -6.13144e-10 -3.71911e-10 -2.89019e-09 -3.55206e-10 -2.13568e-10 -1.67089e-09 7.73091 5.47488 0.417314 -3.55213e-10 -2.1357e-10 -1.67088e-09 2.90554 0.965183 0.102902 -3.55206e-10 -2.13572e-10 -1.67088e-09 10.2786 0.731801 0.0259123 -3.55221e-10 -2.13568e-10 -1.67087e-09 2.22167 -0.733487 -0.20892 -1.42521e-13 -1.32392e-13 2.77e-13 -15.2839 -5.35861 -134.026 15.9008 -8.59565 -29.4626 0.00331879 -1.66155 0.233586 2.60432e-10 1.90057e-09 -4.42344e-10 4.52689e-10 3.28867e-09 -7.64413e-10 2.60429e-10 1.90057e-09 -4.42338e-10 -7.73091 5.47488 -0.417314 2.60435e-10 1.90057e-09 -4.42344e-10 -2.90554 0.965183 -0.102902 2.60428e-10 1.90057e-09 -4.42344e-10 -10.2786 0.731801 -0.0259123 2.60437e-10 1.90057e-09 -4.42348e-10 -2.22167 -0.733487 0.20892 -2.03217e-16 0.0 -3.88251e-19 16.2914 -32.3686 23.5255 -0.203378 32.5139 0.707347 1.71663 2.18329 24.3629 2.03217e-16 0.0 3.88251e-19 29.159 -3.46125 21.1066 0.178457 37.7025 -1.12225 -1.44144 7.82649 17.2672
-30.1677 80.8906 20.6772 -8.6581 36.8204 2.237 -21.7082 0.691365 -24.3428 3.57452 -0.0212444 -6.79561 -3.75403 9.18351 22.6259 -15.9387 -9.60056 43.3768 -0.0 0.0 0.0 -0.0 0.0 0.0 -2.05457e-13 -1.04085e-13 2.27368e-13 48.9804 -18.7661 46.9092 -27.3699 -42.9405 89.3696 -0.000896734 -0.113517 -0.0160105 -2.42951e-10 -2.81729e-10 -2.47652e-09 -4.19431e-10 -4.90087e-10 -4.28284e-09 -2.42947e-10 -2.8173e-10 -2.47653e-09 7.73091 5.47488 0.417314 -2.42953e-10 -2.8173e-10 -2.47651e-09 2.90554 0.965183 0.102902 -2.42946e-10 -2.81734e-10 -2.47651e-09 10.2786 0.731801 0.0259123 -2.42958e-10 -2.81729e-10 -2.4765e-09 2.22167 -0.733487 -0.20892 -2.056e-13 -1.04093e-13 2.27046e-13 -15.6781 -6.01883 -134.66 16.0598 -8.74313 -29.7981 0.00533391 -2.08057 0.292542 1.46805e-09 1.19186e-09 -5.95016e-10 2.54015e-09 2.06506e-09 -1.02944e-09 1.46804e-09 1.19185e-09 -5.95008e-10 -7.73091 5.47488 -0.417314 1.46805e-09 1.19186e-09 -5.95016e-10 -2.90554 0.965183 -0.102902 1.46804e-09 1.19186e-09 -5.95016e-10 -10.2786 0.731801 -0.0259123 1.46805e-09 1.19186e-09 -5.95021e-10 -2.22167 -0.733487 0.20892 -2.03217e-16 0.0 -3.88251e-19 16.2364 -32.4158 23.6974 -0.204132 32.6134 0.711856 1.68503 2.30324 24.596 2.03217e-16 0.0 3.88251e-19 28.9405 -3.31994 21.1752 0.177693 37.6542 -1.12192 -1.32747 7.3496 17.7245
-30.1572 80.9008 20.7903 -8.5033 36.4637 2.3637 -21.8329 0.570254 -24.2424 3.36747 -0.170133 -6.75321 -3.55824 9.30855 22.6005 -16.0207 -9.77409 43.2668 -0.0 0.0 0.0 -0.0 0.0 0.0 -2.31918e-13 -8.26886e-14 1.40889e-13 48.0362 -20.1133 46.9225 -27.3222 -43.0871 89.6567 -0.000257602 0.458296 0.0644107 -1.54026e-10 -2.27667e-10 -2.59916e-09 -2.65923e-10 -3.95903e-10 -4.49472e-09 -1.54022e-10 -2.27667e-10 -2.59917e-09 7.73091 5.47488 0.417314 -1.54028e-10 -2.27667e-10 -2.59916e-09 2.90554 0.965183 0.102902 -1.5402e-10 -2.2767e-10 -2.59915e-09 10.2786 0.731801 0.0259123 -1.54031e-10 -2.27666e-10 -2.59914e-09 2.22167 -0.733487 -0.20892 -2.3206e-13 -8.2701e-14 1.40541e-13 -16.0732 -6.67895 -135.263 16.208 -8.88191 -30.113 0.00774659 -2.5122 0.353295 2.19194e-09 5.29282e-10 -7.07158e-10 3.79121e-09 9.20204e-10 -1.22421e-09 2.19193e-09 5.29277e-10 -7.07149e-10 -7.73091 5.47488 -0.417314 2.19194e-09 5.29281e-10 -7.07158e-10 -2.90554 0.965183 -0.102902 2.19193e-09 5.29282e-10 -7.07159e-10 -10.2786 0.731801 -0.0259123 2.19194e-09 5.29287e-10 -7.07165e-10 -2.22167 -0.733487 0.20892 -2.03217e-16 0.0 -3.88251e-19 16.2368 -32.4374 23.9335 -0.204783 32.693 0.715244 1.67081 2.3733 24.7618 2.03217e-16 0.0 3.88251e-19 28.7558 -3.17694 21.2213 0.176979 37.5974 -1.11976 -1.3334 7.3182 17.9406
-30.1416 80.9146 20.8987 -8.3564 36.1431 2.4423 -21.9078 0.41804 -24.124 3.17701 -0.270498 -6.70731 -3.44847 9.43193 22.5959 -15.9845 -9.96868 43.2088 -0.0 0.0 0.0 -0.0 0.0 0.0 -2.16706e-13 -7.63166e-14 -1.6097e-15 47.06 -21.4144 46.8953 -27.2897 -43.1839 89.8479 -0.00137645 1.09918 0.154473 -1.04141e-10 1.50538e-11 -1.71797e-09 -1.79938e-10 2.60908e-11 -2.97096e-09 -1.04138e-10 1.50551e-11 -1.71797e-09 7.73091 5.47488 0.417314 -1.04143e-10 1.50556e-11 -1.71796e-09 2.90554 0.965183 0.102902 -1.04136e-10 1.50523e-11 -1.71796e-09 10.2786 0.731801 0.0259123 -1.04147e-10 1.50566e-11 -1.71795e-09 2.22167 -0.733487 -0.20892 -2.16846e-13 -7.6326e-14 -1.92999e-15 -16.4656 -7.35803 -135.838 16.344 -9.01056 -30.4028 0.0106578 -2.97034 0.417818 2.26609e-09 -4.55939e-11 -8.17568e-10 3.91897e-09 -7.43208e-11 -1.4158e-09 2.26609e-09 -4.55984e-11 -8.17558e-10 -7.73091 5.47488 -0.417314 2.26609e-09 -4.55949e-11 -8.17568e-10 -2.90554 0.965183 -0.102902 2.26609e-09 -4.55939e-11 -8.17568e-10 -10.2786 0.731801 -0.0259123 2.26609e-09 -4.55892e-11 -8.17573e-10 -2.22167 -0.733487 0.20892 -2.03217e-16 0.0 -3.88251e-19 16.3287 -32.4251 24.2861 -0.205443 32.7551 0.716989 1.68901 2.35778 24.8186 2.03217e-16 0.0 3.88251e-19 28.6198 -3.02708 21.2447 0.176353 37.5282 -1.11494 -1.5294 7.96537 17.7917
-30.1336 80.9235 20.9989 -8.1491 35.7878 2.6496 -21.9542 0.23955 -23.977 2.98747 -0.34104 -6.65387 -3.36907 9.57417 22.5987 -15.8853 -10.1706 43.1685 -0.0 0.0 0.0 -0.0 0.0 0.0 -1.68811e-13 -7.50405e-14 -1.92598e-13 46.0654 -22.6945 46.7933 -27.2697 -43.2452 89.9665 -0.00326247 1.73718 0.244184 -4.3606e-11 3.87472e-10 -1.64608e-10 -7.55075e-11 6.73524e-10 -2.84962e-10 -4.36027e-11 3.87474e-10 -1.64614e-10 7.73091 5.47488 0.417314 -4.36082e-11 3.87475e-10 -1.64603e-10 2.90554 0.965183 0.102902 -4.3603e-11 3.87473e-10 -1.64601e-10 10.2786 0.731801 0.0259123 -4.36127e-11 3.87476e-10 -1.64587e-10 2.22167 -0.733487 -0.20892 -1.68945e-13 -7.5043e-14 -1.92855e-13 -16.8264 -8.04601 -136.398 16.4711 -9.13221 -30.6738 0.0143953 -3.45597 0.486282 1.8907e-09 -6.07694e-10 -9.20761e-10 3.26941e-09 -1.04772e-09 -1.59467e-09 1.8907e-09 -6.07696e-10 -9.2075e-10 -7.73091 5.47488 -0.417314 1.8907e-09 -6.07694e-10 -9.20761e-10 -2.90554 0.965183 -0.102902 1.8907e-09 -6.07694e-10 -9.20759e-10 -10.2786 0.731801 -0.0259123 1.8907e-09 -6.0769e-10 -9.20762e-10 -2.22167 -0.733487 0.20892 -2.03217e-16 0.0 -3.88251e-19 16.48 -32.3909 24.7143 -0.206058 32.8027 0.717602 1.72818 2.28746 24.8063 2.03217e-16 0.0 3.88251e-19 28.5175 -2.87643 21.258 0.17583 37.4525 -1.10844 -1.83764 9.06021 17.4036
-30.1521 80.9284 21.1005 -8.0531 35.4158 2.863 -21.9907 0.0693131 -23.8215 2.81509 -0.399619 -6.59929 -3.30431 9.72158 22.6046 -15.767 -10.3877 43.1343 -0.0 0.0 0.0 -0.0 0.0 0.0 -9.28641e-14 -6.80491e-14 -3.93997e-13 45.0683 -23.9263 46.6448 -27.2558 -43.2893 90.0498 -0.00609093 2.31311 0.325239 2.56482e-11 7.84332e-10 1.58776e-09 4.43582e-11 1.36341e-09 2.74491e-09 2.56519e-11 7.84334e-10 1.58775e-09 7.73091 5.47488 0.417314 2.56465e-11 7.84335e-10 1.58776e-09 2.90554 0.965183 0.102902 2.56503e-11 7.84334e-10 1.58776e-09 10.2786 0.731801 0.0259123 2.56407e-11 7.84336e-10 1.58778e-09 2.22167 -0.733487 -0.20892 -9.29937e-14 -6.80451e-14 -3.94187e-13 -17.1812 -8.70265 -136.928 16.5914 -9.24856 -30.9313 0.0188477 -3.93705 0.554186 1.28916e-09 -1.19434e-09 -9.33558e-10 2.2286e-09 -2.06416e-09 -1.61706e-09 1.28915e-09 -1.19433e-09 -9.33545e-10 -7.73091 5.47488 -0.417314 1.28916e-09 -1.19433e-09 -9.33558e-10 -2.90554 0.965183 -0.102902 1.28915e-09 -1.19433e-09 -9.33554e-10 -10.2786 0.731801 -0.0259123 1.28916e-09 -1.19433e-09 -9.33555e-10 -2.22167 -0.733487 0.20892 -2.03217e-16 0.0 -3.88251e-19 16.6326 -32.3427 25.1301 -0.206389 32.8283 0.717858 1.76482 2.22045 24.7884 2.03217e-16 0.0 3.88251e-19 28.4272 -2.73189 21.2521 0.175346 37.3744 -1.10138 -2.15273 10.2538 16.966
